<svg width="24" height="24" viewBox="0 0 24 24" fill="none" xmlns="http://www.w3.org/2000/svg">
<path fill-rule="evenodd" clip-rule="evenodd" d="M9.77284 2.01034C9.65933 2.01737 8.83898 2.02951 7.94984 2.0373C6.33321 2.05146 6.33321 2.05146 6.21282 2.09096C6.14661 2.11268 6.046 2.15386 5.98925 2.18244C5.93249 2.21102 5.83962 2.26571 5.78287 2.30396C5.72612 2.34221 5.57642 2.47465 5.45021 2.59827C5.24477 2.79949 5.19504 2.86087 4.97549 3.1842C4.84062 3.38283 4.65971 3.64597 4.57348 3.76893C4.48726 3.8919 4.31871 4.14678 4.1989 4.33532C4.07912 4.52386 3.90194 4.82569 3.80519 5.00605C3.70845 5.1864 3.6039 5.37653 3.57287 5.42855C3.54185 5.48058 3.42184 5.71662 3.30618 5.9531C3.19054 6.18957 2.8774 6.82805 2.61031 7.37195C2.34324 7.91584 2.0955 8.41114 2.0598 8.47263C2.02408 8.53411 1.9698 8.63472 1.93915 8.6962C1.9085 8.75769 1.85746 8.85056 1.82573 8.90258C1.794 8.95461 1.66044 9.22548 1.52894 9.50452C1.39743 9.78356 1.24154 10.1396 1.18252 10.2956C1.1235 10.4517 1.02261 10.7381 0.958307 10.932C0.894021 11.1259 0.809939 11.4006 0.771484 11.5425C0.733046 11.6844 0.682036 11.8914 0.658148 12.0025C0.63426 12.1136 0.599468 12.2994 0.580825 12.4153C0.562182 12.5311 0.535009 12.7409 0.52046 12.8813C0.50591 13.0217 0.486872 13.3119 0.478187 13.5262C0.468693 13.7602 0.468504 14.2421 0.477722 14.7328C0.486149 15.1821 0.508851 15.8167 0.528182 16.143C0.547495 16.4693 0.575098 16.8524 0.589527 16.9943C0.603957 17.1362 0.626985 17.4496 0.640709 17.6908C0.654433 17.932 0.673901 18.2599 0.683962 18.4194C0.694041 18.5789 0.713629 18.8034 0.727491 18.9182C0.741353 19.033 0.763727 19.2275 0.777194 19.3505C0.79066 19.4734 0.809526 19.6089 0.819088 19.6514C0.828668 19.694 0.848566 19.8101 0.863322 19.9094C0.878078 20.0087 0.913541 20.2082 0.942107 20.3528C0.97069 20.4973 1.0141 20.6792 1.03857 20.7569C1.06304 20.8347 1.10527 20.9474 1.13239 21.0074C1.15953 21.0675 1.21576 21.1643 1.2574 21.2226C1.29904 21.281 1.36953 21.3623 1.41406 21.4033C1.45858 21.4444 1.54306 21.4998 1.60178 21.5264C1.66047 21.553 1.75071 21.5838 1.80231 21.5947C1.8662 21.6083 2.37016 21.6189 3.38373 21.628C4.30441 21.6363 4.90716 21.6352 4.96527 21.6252C5.01692 21.6162 5.09431 21.5911 5.13725 21.5693C5.18019 21.5475 5.2525 21.4968 5.2979 21.4568C5.34631 21.4141 5.4025 21.3404 5.43368 21.2787C5.46295 21.2208 5.5173 21.0883 5.55446 20.9843C5.6037 20.8464 5.63313 20.7204 5.66291 20.5199C5.68539 20.3686 5.71516 20.1364 5.72904 20.004C5.74294 19.8716 5.76247 19.6471 5.77246 19.5052C5.78246 19.3634 5.79945 19.1198 5.8102 18.9641C5.82096 18.8084 5.83347 18.6713 5.83801 18.6595C5.84253 18.6477 5.86294 18.6326 5.88334 18.6259C5.90376 18.6192 8.64464 18.6137 11.9742 18.6136C15.3038 18.6136 18.0447 18.6191 18.0651 18.6258C18.0855 18.6325 18.1069 18.6504 18.1127 18.6656C18.1185 18.6807 18.1311 18.7675 18.1406 18.8584C18.1502 18.9493 18.1581 19.0817 18.1583 19.1527C18.1585 19.2236 18.1701 19.4132 18.184 19.574C18.198 19.7348 18.2247 19.998 18.2435 20.1588C18.2622 20.3196 18.2859 20.5053 18.2961 20.5715C18.3063 20.6377 18.3258 20.7383 18.3395 20.7951C18.3531 20.8519 18.4 20.9901 18.4437 21.1023C18.4874 21.2145 18.5471 21.3378 18.5765 21.3763C18.6059 21.4148 18.6784 21.4794 18.7376 21.5199C18.7968 21.5605 18.8781 21.603 18.9182 21.6145C18.9731 21.6302 19.3238 21.6344 20.3411 21.6313C21.0836 21.6291 21.8082 21.6203 21.9513 21.6116C22.1034 21.6024 22.2462 21.5843 22.2952 21.568C22.3414 21.5526 22.4119 21.5212 22.452 21.4981C22.492 21.475 22.5622 21.4187 22.6079 21.3729C22.654 21.3268 22.7221 21.2295 22.7608 21.1543C22.7991 21.0797 22.8546 20.9452 22.8839 20.8553C22.9133 20.7654 22.9563 20.6107 22.9795 20.5113C23.0027 20.412 23.0528 20.1489 23.091 19.9266C23.1292 19.7043 23.1795 19.3715 23.2028 19.1871C23.2261 19.0026 23.254 18.7472 23.2649 18.6195C23.2757 18.4918 23.295 18.3487 23.3078 18.3014C23.3205 18.2541 23.3398 18.0412 23.3505 17.8284C23.3613 17.6156 23.3851 17.2828 23.4034 17.0889C23.4217 16.895 23.4525 16.4693 23.4718 16.143C23.4911 15.8167 23.5139 15.1821 23.5223 14.7328C23.5315 14.2421 23.5313 13.7602 23.5218 13.5262C23.5131 13.3119 23.4941 13.0217 23.4795 12.8813C23.465 12.7409 23.4378 12.5311 23.4192 12.4153C23.4005 12.2994 23.3657 12.1136 23.3419 12.0025C23.318 11.8914 23.2669 11.6844 23.2285 11.5425C23.19 11.4006 23.1097 11.1375 23.0501 10.9578C22.9904 10.778 22.9013 10.5226 22.852 10.3902C22.8027 10.2578 22.7329 10.0798 22.6968 9.99466C22.6607 9.90953 22.5347 9.63729 22.4169 9.38967C22.299 9.14205 22.1872 8.91761 22.1683 8.89092C22.1494 8.86423 22.1011 8.7766 22.0608 8.6962C22.0206 8.6158 21.9662 8.51875 21.9399 8.48054C21.9137 8.44232 21.836 8.31076 21.7672 8.18817C21.6984 8.06558 21.5208 7.7215 21.3726 7.42354C21.2243 7.12558 20.9532 6.5761 20.77 6.20247C20.5869 5.82884 20.403 5.4651 20.3613 5.39416C20.3197 5.32322 20.2178 5.13703 20.1349 4.9804C20.0521 4.82378 19.9451 4.63417 19.8973 4.55905C19.8494 4.48393 19.7695 4.35668 19.7198 4.27628C19.6702 4.19588 19.5277 3.98305 19.4034 3.80333C19.279 3.62361 19.0779 3.32952 18.9564 3.1498C18.7736 2.87932 18.7013 2.78897 18.5364 2.62526C18.4268 2.51648 18.287 2.38983 18.2256 2.34381C18.1642 2.2978 18.0475 2.22679 17.9664 2.18603C17.8852 2.14527 17.773 2.0986 17.717 2.08233C17.6253 2.05569 17.4545 2.05158 15.9986 2.04095C15.1094 2.03445 14.3688 2.02327 14.3527 2.01611C14.3366 2.00894 13.346 2.00182 12.1513 2.00029C10.9567 1.99878 9.88635 2.00329 9.77284 2.01034ZM8.16481 3.72955C8.67087 3.72771 9.7408 3.73751 10.5425 3.75134C11.839 3.77371 12.162 3.77358 13.4661 3.74996C14.2725 3.73536 15.2573 3.7259 15.6546 3.72893C16.0519 3.73197 16.5008 3.73179 16.6521 3.72852C16.8677 3.72386 16.9515 3.72876 17.0391 3.7512C17.1005 3.76694 17.2067 3.8072 17.275 3.84065C17.3444 3.87465 17.4483 3.94656 17.5107 4.00371C17.5721 4.05994 17.6783 4.18078 17.7467 4.27224C17.8152 4.36371 17.9422 4.54328 18.0289 4.67127C18.1157 4.79927 18.2428 5.00075 18.3114 5.11899C18.38 5.23723 18.5522 5.55453 18.694 5.82411C18.8358 6.09369 19.0255 6.45279 19.1155 6.62209C19.2056 6.7914 19.4353 7.19771 19.6261 7.52499C19.8169 7.85229 19.9784 8.1341 19.9849 8.15125C19.9915 8.16841 19.9859 8.20323 19.9725 8.22864C19.9591 8.25406 19.907 8.31497 19.8566 8.36402C19.8062 8.41307 19.699 8.4944 19.6185 8.54476C19.5379 8.59511 19.4257 8.6509 19.3691 8.66872C19.3125 8.68654 19.2314 8.71464 19.1888 8.73117C19.1463 8.74769 19.0689 8.7712 19.0168 8.78341C18.9406 8.80132 17.5909 8.80639 12.043 8.80962C5.9608 8.81318 5.14779 8.81062 5.02615 8.78761C4.95048 8.77328 4.85374 8.74797 4.81117 8.73134C4.76861 8.71473 4.68749 8.68654 4.63092 8.66872C4.57434 8.6509 4.46212 8.59511 4.38155 8.54476C4.30096 8.4944 4.19381 8.41307 4.14342 8.36402C4.09303 8.31497 4.04085 8.25406 4.02745 8.22864C4.01406 8.20323 4.00849 8.16841 4.01506 8.15125C4.02162 8.1341 4.1831 7.85229 4.37389 7.52499C4.56467 7.19771 4.79442 6.7914 4.88446 6.62209C4.97447 6.45279 5.16417 6.09369 5.306 5.82411C5.44782 5.55453 5.61997 5.23723 5.68857 5.11899C5.75718 5.00075 5.88429 4.79927 5.97107 4.67127C6.05783 4.54328 6.1845 4.36418 6.2525 4.27329C6.32052 4.18239 6.42216 4.06545 6.47838 4.0134C6.53458 3.96136 6.62166 3.89539 6.67188 3.86679C6.72208 3.83819 6.81245 3.79827 6.87272 3.77808C6.93296 3.75791 7.02583 3.73507 7.07909 3.72737C7.13234 3.71964 7.1914 3.71773 7.21032 3.72312C7.22923 3.7285 7.65876 3.73141 8.16481 3.72955ZM2.05947 5.79212C1.96961 5.80065 1.80322 5.82262 1.68971 5.84095C1.5762 5.85927 1.41368 5.89399 1.32855 5.91812C1.24342 5.94223 1.08716 6.00452 0.981301 6.05653C0.822837 6.1344 0.76285 6.17571 0.641621 6.29047C0.560652 6.36713 0.455863 6.48744 0.408775 6.55785C0.361669 6.62826 0.296763 6.74156 0.264517 6.80963C0.23227 6.8777 0.181622 7.00225 0.151972 7.08642C0.122305 7.17061 0.0793443 7.33313 0.0564708 7.44758C0.0336144 7.56205 0.00972623 7.7179 0.00339731 7.7939C-0.00320677 7.87334 6.08503e-05 7.98468 0.0110849 8.05578C0.0216445 8.12381 0.0462207 8.2221 0.0657234 8.27421C0.0852089 8.32631 0.132779 8.41629 0.171423 8.47416C0.210067 8.53201 0.292051 8.62091 0.353638 8.6717C0.415207 8.72248 0.524312 8.79447 0.596097 8.83167C0.667882 8.86887 0.794409 8.91988 0.877287 8.94504C0.960165 8.97019 1.04249 8.98616 1.06026 8.98052C1.07832 8.97478 1.11701 8.91935 1.14802 8.85474C1.17853 8.79119 1.51298 8.08546 1.89126 7.28644C2.40531 6.2006 2.57485 5.82704 2.5625 5.8074C2.54976 5.78715 2.50888 5.7806 2.38441 5.77886C2.29555 5.77763 2.14933 5.78359 2.05947 5.79212ZM21.4452 5.79316C21.4339 5.80451 21.4246 5.81998 21.4246 5.82753C21.4246 5.8351 21.7333 6.49331 22.1106 7.29024C22.4878 8.08716 22.8215 8.79119 22.852 8.85474C22.883 8.91935 22.9217 8.97478 22.9397 8.98052C22.9575 8.98616 23.0398 8.97019 23.1227 8.94504C23.2056 8.91988 23.3321 8.86887 23.4039 8.83167C23.4757 8.79447 23.5848 8.72248 23.6464 8.6717C23.708 8.62091 23.7899 8.53201 23.8286 8.47416C23.8672 8.41629 23.9148 8.32631 23.9343 8.27421C23.9538 8.2221 23.9784 8.12381 23.9889 8.05578C23.9999 7.98468 24.0032 7.87334 23.9966 7.7939C23.9903 7.7179 23.9664 7.56205 23.9435 7.44758C23.9207 7.33313 23.8777 7.17061 23.848 7.08642C23.8184 7.00225 23.7677 6.8777 23.7355 6.80963C23.7032 6.74156 23.6383 6.62826 23.5912 6.55785C23.5441 6.48744 23.4394 6.36713 23.3584 6.29047C23.2372 6.17571 23.1772 6.1344 23.0187 6.05653C22.9128 6.00452 22.7566 5.94223 22.6715 5.91812C22.5863 5.89399 22.4238 5.85944 22.3103 5.84133C22.1968 5.82322 22.0149 5.80036 21.9061 5.79052C21.7974 5.78069 21.6538 5.7726 21.5871 5.77257C21.5157 5.77253 21.4574 5.781 21.4452 5.79316ZM20.861 9.74099C20.8755 9.75753 20.9048 9.80591 20.926 9.84848C20.9473 9.89104 20.999 9.97736 21.041 10.0403C21.083 10.1032 21.1666 10.2706 21.2269 10.4122C21.2871 10.5539 21.3866 10.8045 21.448 10.9691C21.5093 11.1337 21.5956 11.3842 21.6397 11.5258C21.6838 11.6674 21.7505 11.9027 21.7879 12.0486C21.8253 12.1946 21.8747 12.4229 21.8978 12.556C21.9209 12.6891 21.9535 12.9179 21.9702 13.0645C21.9962 13.2916 22.0005 13.4788 21.9992 14.3286C21.998 15.1359 21.9906 15.4474 21.9601 15.9624C21.9394 16.3124 21.9145 16.6839 21.9047 16.7879C21.895 16.892 21.8831 16.9906 21.8782 17.0072C21.8734 17.0237 21.8487 17.043 21.8233 17.05C21.7979 17.0571 17.3774 17.0629 12 17.0629C6.62257 17.0629 2.20208 17.0571 2.17671 17.05C2.15133 17.043 2.12661 17.0237 2.12178 17.0072C2.11695 16.9906 2.10503 16.892 2.09528 16.7879C2.08554 16.6839 2.06062 16.3124 2.03992 15.9624C2.00944 15.4474 2.00198 15.1359 2.00077 14.3286C1.9995 13.4788 2.00378 13.2916 2.02975 13.0645C2.04652 12.9179 2.07911 12.6891 2.10217 12.556C2.12525 12.4229 2.17472 12.1946 2.2121 12.0486C2.24949 11.9027 2.31617 11.6674 2.36028 11.5258C2.4044 11.3842 2.4907 11.1337 2.55204 10.9691C2.61341 10.8045 2.71329 10.553 2.774 10.4102C2.83473 10.2674 2.91121 10.1116 2.94399 10.064C2.97677 10.0164 3.03314 9.92329 3.06928 9.85708C3.11673 9.77014 3.14581 9.73514 3.17396 9.73112C3.19831 9.72763 3.26343 9.75793 3.34753 9.81188C3.42155 9.85937 3.60895 9.96407 3.764 10.0446C3.91904 10.1251 4.0807 10.2033 4.12327 10.2184C4.16581 10.2335 4.25868 10.2619 4.32963 10.2815C4.40057 10.3012 4.48957 10.3251 4.5274 10.3348C4.57062 10.3459 5.26763 10.3571 6.402 10.3651C7.3952 10.372 9.90269 10.3777 11.9742 10.3778C14.0457 10.3778 16.5532 10.3721 17.5464 10.3651C18.705 10.3569 19.3769 10.346 19.421 10.3344C19.4588 10.3245 19.5517 10.3004 19.6274 10.2808C19.7031 10.2613 19.8118 10.2262 19.869 10.2029C19.9262 10.1796 20.0926 10.103 20.2388 10.0326C20.3849 9.9623 20.5703 9.86126 20.6507 9.80813C20.7311 9.75499 20.8053 9.71138 20.8157 9.7112C20.826 9.71103 20.8464 9.72445 20.861 9.74099ZM4.94066 10.9844C4.88418 10.9932 4.76422 11.0196 4.67409 11.0429C4.58395 11.0663 4.4603 11.1057 4.3993 11.1306C4.33828 11.1555 4.22993 11.2053 4.15852 11.2413C4.0871 11.2773 3.95966 11.356 3.87534 11.4161C3.79101 11.4761 3.65558 11.5917 3.57437 11.6729C3.49316 11.7542 3.37755 11.8896 3.31748 11.9739C3.25739 12.0582 3.17415 12.1949 3.13251 12.2775C3.09088 12.3602 3.03744 12.4793 3.01378 12.5421C2.99011 12.605 2.94978 12.7386 2.92418 12.839C2.88096 13.0084 2.87755 13.0476 2.87698 13.3827C2.87642 13.7244 2.87905 13.7544 2.92567 13.9394C2.95278 14.0469 3.00408 14.2065 3.03968 14.294C3.07528 14.3815 3.13733 14.5102 3.17757 14.58C3.2178 14.6498 3.29103 14.7611 3.34027 14.8273C3.38952 14.8936 3.47103 14.9928 3.52138 15.0478C3.57176 15.1029 3.66781 15.1927 3.73485 15.2475C3.80188 15.3023 3.90702 15.3798 3.9685 15.4197C4.02997 15.4597 4.14991 15.5256 4.23504 15.5662C4.32017 15.6068 4.45173 15.6601 4.5274 15.6848C4.60308 15.7094 4.72303 15.7416 4.79398 15.7564C4.86492 15.7712 5.00381 15.7911 5.10263 15.8005C5.22152 15.8118 5.34402 15.8118 5.46482 15.8005C5.56521 15.7912 5.7088 15.7708 5.7839 15.7553C5.85901 15.7398 5.9785 15.7075 6.04944 15.6835C6.12038 15.6595 6.24378 15.6097 6.32365 15.5728C6.40352 15.536 6.54669 15.4541 6.64181 15.3909C6.75009 15.319 6.88252 15.2082 6.99601 15.0947C7.10333 14.9873 7.22141 14.8471 7.28551 14.751C7.34503 14.6617 7.41929 14.5379 7.45054 14.4758C7.48177 14.4138 7.53177 14.2937 7.56162 14.2091C7.59148 14.1245 7.63267 13.9852 7.65317 13.8995C7.68478 13.7675 7.69054 13.6916 7.69114 13.3999C7.69176 13.1035 7.68648 13.0319 7.65295 12.8824C7.63155 12.7869 7.59034 12.6437 7.5614 12.5642C7.53245 12.4847 7.46978 12.3449 7.42215 12.2537C7.37451 12.1624 7.28693 12.0231 7.22757 11.9441C7.16818 11.8651 7.04327 11.7267 6.94999 11.6364C6.85669 11.5462 6.71143 11.4271 6.6272 11.3718C6.54294 11.3165 6.40364 11.2381 6.31763 11.1977C6.2316 11.1573 6.12549 11.1124 6.08181 11.0979C6.03812 11.0834 5.92591 11.051 5.83243 11.0259C5.68474 10.9862 5.62195 10.9795 5.35292 10.9743C5.18265 10.971 4.99714 10.9756 4.94066 10.9844ZM18.2859 10.9911C18.2103 11.004 18.0826 11.0341 18.0022 11.0579C17.9218 11.0818 17.7941 11.1275 17.7184 11.1595C17.6427 11.1915 17.5266 11.2494 17.4603 11.2881C17.394 11.3268 17.2895 11.3954 17.2281 11.4405C17.1667 11.4856 17.0632 11.5734 16.9982 11.6357C16.9331 11.6979 16.8398 11.7992 16.7908 11.8607C16.7418 11.9221 16.6767 12.0091 16.6461 12.0539C16.6156 12.0987 16.5529 12.2109 16.5068 12.3033C16.4608 12.3956 16.399 12.5447 16.3695 12.6346C16.3401 12.7244 16.303 12.8676 16.2873 12.9527C16.2678 13.0574 16.2586 13.1993 16.2586 13.3913C16.2586 13.5478 16.2684 13.7252 16.2803 13.7869C16.2921 13.8483 16.3253 13.9797 16.3539 14.0788C16.3826 14.178 16.4433 14.3366 16.4889 14.4314C16.5345 14.5262 16.613 14.6657 16.6635 14.7414C16.7139 14.817 16.8481 14.9729 16.9616 15.0878C17.0964 15.2241 17.2188 15.3294 17.3142 15.391C17.3946 15.4429 17.525 15.5177 17.604 15.5572C17.683 15.5968 17.8261 15.6551 17.9222 15.6869C18.0182 15.7187 18.1741 15.7581 18.2687 15.7744C18.3742 15.7927 18.5305 15.8042 18.6729 15.8042C18.817 15.8042 18.9703 15.7928 19.077 15.7741C19.1716 15.7576 19.3225 15.7206 19.4124 15.692C19.5023 15.6634 19.6454 15.6067 19.7306 15.566C19.8157 15.5252 19.9395 15.4555 20.0057 15.4109C20.072 15.3664 20.1857 15.2799 20.2585 15.2187C20.3313 15.1574 20.4294 15.063 20.4765 15.0088C20.5236 14.9547 20.604 14.8521 20.6551 14.7808C20.7063 14.7095 20.7834 14.5825 20.8266 14.4985C20.8698 14.4145 20.9291 14.2776 20.9584 14.1942C20.9877 14.1109 21.0286 13.9639 21.0493 13.8675C21.08 13.7249 21.087 13.6362 21.087 13.3913C21.087 13.1464 21.08 13.0577 21.0493 12.9151C21.0286 12.8187 20.9875 12.6717 20.9581 12.5884C20.9287 12.505 20.8736 12.3749 20.8357 12.2992C20.7977 12.2235 20.7194 12.092 20.6616 12.0068C20.6038 11.9217 20.4751 11.7708 20.3757 11.6714C20.2722 11.568 20.1308 11.4483 20.0449 11.3916C19.9624 11.3371 19.8269 11.2581 19.7439 11.216C19.6609 11.1739 19.5233 11.1165 19.4382 11.0886C19.3531 11.0605 19.2254 11.0248 19.1544 11.0091C19.0713 10.9908 18.9185 10.9783 18.7245 10.9742C18.5213 10.9698 18.3788 10.9753 18.2859 10.9911ZM5.4975 12.5579C5.55811 12.5721 5.65454 12.6088 5.71181 12.6393C5.76908 12.6698 5.85949 12.7351 5.91272 12.7843C5.96593 12.8336 6.03321 12.9187 6.06222 12.9735C6.09122 13.0283 6.1273 13.1152 6.1424 13.1666C6.1576 13.2184 6.16983 13.3223 6.16983 13.3999C6.16983 13.4785 6.15767 13.5808 6.1421 13.6332C6.12687 13.6846 6.09491 13.7651 6.07111 13.8121C6.04731 13.8592 5.98199 13.9454 5.92598 14.0037C5.86996 14.062 5.77938 14.1336 5.72471 14.1627C5.67002 14.1919 5.57979 14.2276 5.52418 14.2421C5.46857 14.2566 5.3686 14.2682 5.30201 14.268C5.23542 14.2677 5.14633 14.2596 5.10402 14.2498C5.06172 14.2401 4.97659 14.2081 4.91484 14.1787C4.84067 14.1434 4.76421 14.0868 4.68953 14.012C4.62461 13.9469 4.55711 13.8584 4.53096 13.8041C4.50594 13.752 4.47361 13.6633 4.45913 13.607C4.44466 13.5506 4.433 13.4538 4.43323 13.392C4.43347 13.3301 4.44167 13.2447 4.45148 13.2021C4.46128 13.1596 4.49385 13.0749 4.52386 13.0139C4.55387 12.9529 4.62009 12.8581 4.67099 12.8031C4.73834 12.7303 4.80172 12.6842 4.90346 12.634C4.9804 12.5961 5.07818 12.5583 5.12074 12.5501C5.16331 12.5419 5.2407 12.5344 5.29272 12.5335C5.34475 12.5326 5.43689 12.5436 5.4975 12.5579ZM18.864 12.5485C18.915 12.5579 19.0196 12.5965 19.0965 12.6343C19.1986 12.6845 19.2614 12.7301 19.329 12.8031C19.3799 12.8581 19.4461 12.9529 19.4761 13.0139C19.5062 13.0749 19.5387 13.1596 19.5485 13.2021C19.5583 13.2447 19.5665 13.3301 19.5668 13.392C19.567 13.4538 19.5553 13.5506 19.5409 13.607C19.5264 13.6633 19.4941 13.752 19.469 13.8041C19.4429 13.8584 19.3754 13.9469 19.3105 14.012C19.2358 14.0868 19.1593 14.1434 19.0852 14.1787C19.0234 14.2081 18.9383 14.2401 18.896 14.2498C18.8537 14.2596 18.7646 14.2677 18.698 14.268C18.6314 14.2682 18.5326 14.2569 18.4784 14.2427C18.4243 14.2286 18.3397 14.1967 18.2904 14.1718C18.2412 14.1468 18.1532 14.0806 18.0949 14.0246C18.0366 13.9685 17.9655 13.8786 17.9369 13.8247C17.9084 13.7708 17.8727 13.6846 17.8576 13.6332C17.8424 13.5814 17.8302 13.4775 17.8302 13.3999C17.8302 13.3223 17.8424 13.2184 17.8576 13.1666C17.8727 13.1152 17.9088 13.0283 17.9378 12.9735C17.9668 12.9187 18.0341 12.8336 18.0873 12.7843C18.1405 12.7351 18.2312 12.6696 18.2889 12.6389C18.3465 12.6082 18.4391 12.5721 18.4946 12.5587C18.5501 12.5453 18.6351 12.5336 18.6834 12.5328C18.7318 12.532 18.8131 12.5391 18.864 12.5485Z" fill="white"/>
</svg>
