<svg width="24" height="24" viewBox="0 0 24 24" fill="none" xmlns="http://www.w3.org/2000/svg">
<path fill-rule="evenodd" clip-rule="evenodd" d="M12.0426 1.00365C12.0097 1.00801 11.9021 1.02451 11.8034 1.0403C11.7047 1.05608 11.5048 1.09805 11.3592 1.13357C11.2135 1.16909 10.929 1.24722 10.727 1.30719C10.5249 1.36716 10.2174 1.46305 10.0435 1.52028C9.86969 1.57751 9.50269 1.70303 9.228 1.79921C8.95331 1.89538 8.48045 2.06488 8.1772 2.17585C7.87396 2.28683 7.49898 2.42753 7.34393 2.48854C7.18887 2.54955 6.63541 2.77146 6.11401 2.9817C5.59263 3.19192 4.98522 3.44156 4.76421 3.53644C4.54321 3.63131 4.22784 3.77148 4.06338 3.84791C3.89893 3.92436 3.59266 4.07135 3.38277 4.17458C3.17289 4.27781 2.84227 4.44817 2.64807 4.55318C2.45387 4.65819 2.18732 4.80914 2.05576 4.88862C1.9242 4.96808 1.71113 5.10421 1.58229 5.19109C1.45344 5.27798 1.24969 5.42824 1.1295 5.52503C1.00932 5.62182 0.817748 5.80144 0.703783 5.92422C0.589836 6.04698 0.44896 6.21823 0.390731 6.30476C0.332501 6.3913 0.242935 6.55372 0.191694 6.66571C0.134302 6.79115 0.0821547 6.94016 0.0558591 7.05383C0.0323827 7.15532 0.00849626 7.32191 0.0027724 7.42403C-0.0032761 7.53213 0.000824581 7.67828 0.012614 7.77381C0.0237371 7.86405 0.0524589 8.00565 0.0764308 8.08848C0.100403 8.1713 0.154976 8.31271 0.197691 8.40273C0.24039 8.49274 0.310118 8.61768 0.352611 8.68038C0.395105 8.74307 0.476606 8.84737 0.533742 8.91218C0.590861 8.97698 0.722185 9.09874 0.825556 9.18276C0.928928 9.26677 1.1451 9.43177 1.30593 9.5494C1.46678 9.66702 1.66842 9.80136 1.75404 9.84795C1.8422 9.89593 1.92204 9.95307 1.93819 9.97976C1.96399 10.0224 1.96479 10.0549 1.94678 10.3217C1.93583 10.4838 1.91892 11.0394 1.90919 11.5564C1.89946 12.0734 1.89002 13.1169 1.8882 13.8754C1.88638 14.6338 1.89112 15.3298 1.89874 15.422C1.91258 15.5896 1.91258 15.5896 1.81028 15.7219C1.75402 15.7947 1.68448 15.9076 1.65574 15.9729C1.62698 16.0381 1.59037 16.1447 1.57434 16.2097C1.55546 16.2863 1.54567 16.3931 1.54652 16.513C1.54757 16.6618 1.55678 16.7272 1.59348 16.8462C1.61861 16.9277 1.66946 17.0489 1.7065 17.1157C1.74353 17.1825 1.77384 17.2456 1.77384 17.256C1.77384 17.2663 1.73319 17.3329 1.68352 17.4039C1.63385 17.4749 1.5606 17.6009 1.52076 17.6839C1.4809 17.7669 1.42207 17.9215 1.39 18.0276C1.35793 18.1336 1.31255 18.3277 1.28914 18.4588C1.26573 18.5899 1.23458 18.793 1.21992 18.9101C1.20526 19.0272 1.17818 19.2979 1.15974 19.5117C1.14129 19.7254 1.11771 20.042 1.10736 20.215C1.09699 20.3881 1.08716 20.7796 1.08554 21.085C1.08275 21.6042 1.08504 21.6509 1.12062 21.8028C1.14153 21.8922 1.17868 22.0081 1.20314 22.0604C1.22761 22.1127 1.28552 22.1989 1.33179 22.2519C1.37807 22.3049 1.45995 22.3736 1.51374 22.4045C1.56752 22.4355 1.65765 22.4748 1.71404 22.4919C1.79388 22.5161 1.91957 22.5252 2.28222 22.5328C2.6515 22.5406 2.80003 22.5362 2.99984 22.5118C3.13841 22.4948 3.29225 22.4765 3.34172 22.4711C3.39468 22.4653 3.47962 22.4353 3.54842 22.398C3.62177 22.3582 3.6983 22.2968 3.75407 22.2329C3.80294 22.1769 3.86536 22.079 3.89278 22.0153C3.92273 21.9457 3.95285 21.8292 3.96821 21.7236C3.98229 21.6269 4.00283 21.4353 4.01387 21.2979C4.0273 21.1307 4.03056 20.8306 4.02374 20.3909C4.01812 20.0295 4.00546 19.6213 3.9956 19.4839C3.98574 19.3465 3.96563 19.1216 3.95092 18.9841C3.93623 18.8467 3.90583 18.626 3.88342 18.4936C3.86098 18.3613 3.82283 18.1789 3.79862 18.0884C3.77441 17.9979 3.73143 17.8647 3.7031 17.7923C3.67479 17.7199 3.60922 17.5793 3.55741 17.48C3.48664 17.3442 3.46621 17.289 3.47528 17.2578C3.48192 17.2351 3.50533 17.1909 3.52731 17.1596C3.54926 17.1284 3.58941 17.0492 3.61653 16.9838C3.64366 16.9183 3.67623 16.8189 3.68892 16.7629C3.70164 16.7069 3.71202 16.5861 3.71202 16.4945C3.71202 16.4029 3.70169 16.2821 3.68908 16.2261C3.67645 16.1701 3.64154 16.066 3.61149 15.9948C3.58143 15.9235 3.51972 15.8159 3.47434 15.7555C3.42111 15.6848 3.39222 15.629 3.39297 15.5982C3.39361 15.572 3.39461 14.9341 3.39523 14.1808C3.39584 13.4274 3.40417 12.3571 3.41372 11.8022C3.42916 10.9065 3.43422 10.791 3.45886 10.7712C3.4809 10.7536 3.50292 10.7558 3.5657 10.782C3.60918 10.8001 3.84731 10.9051 4.09487 11.0154C4.42578 11.1627 4.5493 11.226 4.56127 11.2545C4.57315 11.2827 4.55437 11.419 4.49216 11.756C4.44519 12.0105 4.38725 12.3561 4.36342 12.5241C4.33958 12.6921 4.30039 13.0086 4.27633 13.2275C4.25227 13.4464 4.21794 13.7254 4.20006 13.8476C4.18217 13.9698 4.15206 14.203 4.13318 14.3659C4.1143 14.5288 4.08937 14.7703 4.07782 14.9027C4.06625 15.035 4.05636 15.3646 4.05581 15.6351C4.05484 16.127 4.05484 16.127 4.10384 16.1967C4.13079 16.235 4.1923 16.2937 4.24053 16.3271C4.28877 16.3604 4.46662 16.4678 4.63577 16.5657C4.80492 16.6636 5.10094 16.822 5.29359 16.9176C5.48623 17.0133 5.77072 17.1558 5.92578 17.2342C6.08083 17.3127 6.36916 17.4463 6.56651 17.5311C6.76385 17.616 7.063 17.7362 7.23126 17.7983C7.39952 17.8604 7.65325 17.9483 7.7951 17.9936C7.93695 18.0389 8.19524 18.1134 8.3691 18.1593C8.54295 18.2051 8.81974 18.2673 8.9842 18.2974C9.14865 18.3276 9.50234 18.3817 9.77016 18.4177C10.038 18.4537 10.3494 18.4923 10.4622 18.5034C10.5749 18.5146 10.9171 18.5284 11.2225 18.5342C11.5619 18.5406 11.914 18.5363 12.1281 18.5231C12.3207 18.5113 12.5898 18.4893 12.7261 18.4743C12.8623 18.4594 13.1078 18.4259 13.2715 18.3999C13.4352 18.374 13.7043 18.3235 13.8695 18.2878C14.0347 18.2521 14.412 18.1601 14.7081 18.0834C15.0041 18.0066 15.3885 17.8993 15.5624 17.8448C15.7362 17.7904 16.0707 17.6756 16.3056 17.5898C16.5406 17.5039 16.9318 17.353 17.175 17.2545C17.4183 17.1561 17.7681 17.0101 17.9524 16.9302C18.1368 16.8504 18.3799 16.7415 18.4926 16.6883C18.6054 16.6352 18.8207 16.525 18.9711 16.4436C19.1214 16.3622 19.3235 16.2462 19.4202 16.1859C19.5168 16.1256 19.6303 16.0602 19.6724 16.0407C19.7145 16.0211 19.8052 15.96 19.8739 15.905C19.9463 15.847 20.0077 15.7819 20.0197 15.7504C20.0372 15.7047 20.0323 15.6432 19.9891 15.3641C19.9608 15.1816 19.9215 14.8823 19.9019 14.6991C19.8822 14.5158 19.84 14.1992 19.8082 13.9954C19.7763 13.7917 19.6576 13.1219 19.5444 12.5069C19.4311 11.892 19.3264 11.3138 19.3118 11.222C19.297 11.1302 19.2893 11.0367 19.2944 11.0143C19.3011 10.9855 19.3351 10.9597 19.4109 10.9259C19.4697 10.8997 19.9638 10.6851 20.5088 10.4491C21.0539 10.2131 21.658 9.94705 21.8513 9.85785C22.0447 9.76865 22.2984 9.64397 22.4152 9.58078C22.532 9.51758 22.7118 9.41108 22.8147 9.34409C22.9177 9.27712 23.0754 9.1624 23.165 9.08915C23.2547 9.01591 23.3976 8.87797 23.4826 8.78263C23.5676 8.68728 23.67 8.55684 23.7101 8.49276C23.7503 8.42868 23.8133 8.3079 23.8501 8.22436C23.887 8.14083 23.9331 8.00583 23.9526 7.92439C23.9722 7.84295 23.9923 7.69718 23.9975 7.60047C24.0039 7.48045 23.9982 7.37085 23.9796 7.25525C23.9645 7.16211 23.9289 7.01603 23.9004 6.93061C23.8719 6.8452 23.8083 6.7029 23.7591 6.61436C23.71 6.52585 23.6236 6.39369 23.5672 6.32068C23.5109 6.24768 23.4038 6.13079 23.3294 6.06093C23.255 5.99108 23.1166 5.87687 23.0219 5.80714C22.9271 5.73741 22.7574 5.6236 22.6446 5.55418C22.5318 5.48479 22.255 5.33055 22.0295 5.21142C21.8039 5.0923 21.3311 4.84892 20.9787 4.67057C20.6263 4.49221 20.0881 4.21545 19.7827 4.05552C19.4772 3.89561 19.1024 3.70339 18.9497 3.62836C18.797 3.55336 18.5509 3.43666 18.4029 3.36904C18.2549 3.3014 17.9724 3.17722 17.775 3.09306C17.5777 3.00889 17.1971 2.85096 16.9293 2.74211C16.6614 2.63327 16.3154 2.48754 16.1604 2.41827C16.0053 2.34899 15.5786 2.14869 15.2121 1.97314C14.8456 1.7976 14.4381 1.60829 14.3065 1.55247C14.175 1.49664 13.9712 1.4134 13.8538 1.36748C13.7363 1.32157 13.571 1.25994 13.4864 1.2305C13.4018 1.20109 13.2439 1.15245 13.1354 1.12242C13.027 1.0924 12.8655 1.05466 12.7766 1.03857C12.6877 1.02247 12.4997 1.00624 12.3587 1.0025C12.2178 0.99876 12.0755 0.999278 12.0426 1.00365ZM12.6898 2.68909C12.7968 2.71449 13.0197 2.78542 13.1853 2.84672C13.3509 2.90803 13.6094 3.01087 13.7598 3.07525C13.9101 3.13965 14.31 3.32521 14.6483 3.48763C14.9866 3.65006 15.3952 3.84212 15.5564 3.91446C15.7176 3.98679 16.1328 4.16184 16.4791 4.30344C16.8253 4.44505 17.2432 4.6193 17.4077 4.69065C17.5721 4.76201 17.8489 4.88701 18.0228 4.96842C18.1966 5.04984 18.508 5.20383 18.7148 5.31061C18.9215 5.41739 19.2944 5.61068 19.5434 5.7401C19.7925 5.86952 20.2192 6.08792 20.4917 6.22543C20.7643 6.36294 21.141 6.55624 21.3289 6.65501C21.5169 6.75376 21.7514 6.88281 21.8501 6.9418C21.9487 7.0008 22.0926 7.09479 22.1698 7.15067C22.2469 7.20655 22.3413 7.28903 22.3795 7.33396C22.4178 7.37888 22.4565 7.4368 22.4655 7.46268C22.4773 7.49612 22.4752 7.52746 22.4583 7.57135C22.4452 7.60526 22.3882 7.67475 22.3316 7.72574C22.275 7.77675 22.157 7.86668 22.0693 7.92558C21.9816 7.98447 21.8022 8.08893 21.6707 8.15767C21.5391 8.22644 21.2931 8.34494 21.1239 8.42101C20.9548 8.49711 20.4435 8.72152 19.9877 8.91977C19.5319 9.11799 18.8284 9.41963 18.4243 9.59007C18.0202 9.76053 17.5012 9.98148 17.271 10.0811C17.0407 10.1807 16.6909 10.3371 16.4936 10.4287C16.2962 10.5203 15.8849 10.7199 15.5795 10.8723C15.274 11.0247 14.7474 11.2872 14.4091 11.4556C14.0707 11.6241 13.6171 11.8471 13.401 11.9512C13.1848 12.0553 12.9349 12.173 12.8457 12.2128C12.7564 12.2526 12.6258 12.3015 12.5555 12.3216C12.4851 12.3416 12.3659 12.363 12.2906 12.3691C12.2153 12.3752 12.0653 12.3706 11.9572 12.3589C11.8491 12.3472 11.6877 12.3245 11.5984 12.3084C11.5091 12.2923 11.3899 12.2581 11.3335 12.2324C11.2772 12.2068 10.9658 12.095 10.6416 11.984C10.3173 11.873 9.82142 11.7024 9.5395 11.6049C9.25758 11.5074 8.90822 11.3819 8.76314 11.3262C8.61804 11.2704 8.39507 11.1747 8.26764 11.1134C8.14019 11.0522 7.64939 10.8322 7.17699 10.6247C6.70458 10.4172 6.15762 10.1729 5.9615 10.082C5.7654 9.991 5.46998 9.84858 5.30504 9.76551C5.14007 9.68243 4.99121 9.60334 4.97421 9.58974C4.9514 9.57148 4.94831 9.55953 4.96241 9.54402C4.9729 9.53248 5.03441 9.51464 5.0991 9.5044C5.16378 9.49417 5.38201 9.4523 5.58405 9.41135C5.7861 9.37043 6.22051 9.28334 6.54942 9.21783C6.87833 9.15234 7.43961 9.04497 7.79671 8.97924C8.15381 8.91349 8.66511 8.82255 8.93294 8.77713C9.20076 8.7317 9.66819 8.65661 9.97166 8.61024C10.2751 8.56389 10.5499 8.52597 10.5823 8.52597C10.6217 8.52597 10.6906 8.55669 10.7908 8.61894C10.8731 8.67008 11.002 8.73768 11.0772 8.76917C11.1524 8.80067 11.2868 8.84602 11.3758 8.86997C11.4648 8.89393 11.6147 8.92323 11.709 8.93511C11.8059 8.94731 11.9693 8.95214 12.0853 8.94622C12.1981 8.94046 12.3596 8.92243 12.4441 8.90612C12.5287 8.88984 12.671 8.851 12.7602 8.81983C12.8495 8.78866 12.9969 8.72188 13.0877 8.6714C13.1786 8.62092 13.305 8.53689 13.3687 8.48465C13.4324 8.43242 13.5221 8.34745 13.5681 8.29585C13.614 8.24426 13.6857 8.15079 13.7274 8.08813C13.7691 8.02549 13.8267 7.91799 13.8555 7.84924C13.8842 7.78049 13.9228 7.66099 13.9411 7.58368C13.9624 7.49383 13.975 7.37636 13.9759 7.25803C13.9767 7.15363 13.9657 7.01459 13.9507 6.93914C13.9361 6.86554 13.893 6.73346 13.855 6.64559C13.817 6.55772 13.7475 6.42974 13.7006 6.36118C13.6537 6.29264 13.5782 6.19891 13.5328 6.15291C13.4874 6.10689 13.4033 6.03185 13.346 5.98615C13.2887 5.94045 13.1738 5.8651 13.0907 5.81871C13.0076 5.77232 12.8628 5.70558 12.7688 5.67039C12.6748 5.6352 12.5249 5.59176 12.4356 5.57386C12.3219 5.55106 12.1889 5.54143 11.9914 5.54173C11.7594 5.54208 11.6716 5.55039 11.4959 5.58865C11.3784 5.61423 11.2246 5.65756 11.1541 5.68496C11.0837 5.71235 10.9514 5.77671 10.8602 5.82798C10.769 5.87926 10.633 5.97382 10.5579 6.03815C10.4828 6.10247 10.3781 6.21168 10.3252 6.28083C10.2723 6.34998 10.2031 6.45655 10.1715 6.51763C10.1398 6.57871 10.0897 6.69727 10.0602 6.7811C10.0099 6.92409 10.0027 6.93468 9.94389 6.95206C9.90943 6.96226 9.63518 7.00881 9.33446 7.05551C9.03375 7.10219 8.42249 7.20616 7.97611 7.28655C7.52974 7.36694 6.84544 7.4957 6.45545 7.57266C6.06545 7.64963 5.55031 7.75469 5.31067 7.80611C5.07104 7.85755 4.7212 7.93666 4.53325 7.98194C4.34531 8.02721 4.02622 8.1101 3.82418 8.16613C3.62213 8.22216 3.34534 8.30836 3.20908 8.35767C3.07281 8.407 2.90675 8.46568 2.84005 8.48808C2.71877 8.5288 2.71877 8.5288 2.60939 8.47954C2.54923 8.45246 2.44233 8.39641 2.37185 8.35499C2.30137 8.31356 2.17451 8.22942 2.08993 8.168C2.00536 8.10658 1.87849 8.01022 1.80801 7.95386C1.73753 7.89751 1.66177 7.83034 1.63964 7.80459C1.61752 7.77886 1.58099 7.7185 1.55848 7.67049C1.53596 7.62247 1.51755 7.55539 1.51755 7.52143C1.51755 7.48744 1.53825 7.41429 1.56356 7.35884C1.59264 7.29516 1.66657 7.1963 1.76432 7.09044C1.84944 6.99828 1.99596 6.86362 2.08995 6.79121C2.18392 6.7188 2.36845 6.58919 2.50002 6.50319C2.63156 6.41721 2.86561 6.27385 3.02012 6.18463C3.17463 6.09542 3.44758 5.94756 3.62668 5.85604C3.80578 5.76455 4.06381 5.63544 4.20007 5.56914C4.33634 5.50284 4.55547 5.39898 4.68703 5.33834C4.81859 5.2777 5.10692 5.15015 5.32776 5.05488C5.5486 4.95961 6.18677 4.69706 6.74591 4.4714C7.30506 4.24577 7.93169 3.99646 8.13843 3.91736C8.34518 3.83829 8.8065 3.66912 9.1636 3.54144C9.5207 3.41378 9.98587 3.25082 10.1973 3.17931C10.4088 3.10781 10.7163 3.00761 10.8808 2.95664C11.0452 2.90568 11.3006 2.83032 11.4482 2.7892C11.5959 2.74805 11.8035 2.69789 11.9096 2.67775C12.0156 2.65759 12.1332 2.63778 12.1708 2.63373C12.2084 2.62969 12.2968 2.6301 12.3673 2.63466C12.4377 2.63921 12.5829 2.66372 12.6898 2.68909ZM17.5755 11.7443C17.5898 11.7541 17.641 12.021 17.7149 12.4705C17.7791 12.8614 17.8604 13.3487 17.8955 13.5533C17.9306 13.758 17.9546 13.9461 17.9487 13.9714C17.9403 14.0079 17.9024 14.0357 17.766 14.1052C17.6714 14.1534 17.4848 14.2428 17.3513 14.3039C17.2179 14.365 16.9933 14.4653 16.8524 14.5266C16.7114 14.588 16.4269 14.7002 16.2202 14.7759C16.0134 14.8516 15.702 14.9585 15.5282 15.0135C15.3543 15.0685 15.0891 15.1468 14.9387 15.1876C14.7884 15.2283 14.5139 15.2951 14.3289 15.3361C14.1438 15.3771 13.8785 15.4314 13.7394 15.4568C13.6002 15.4822 13.3672 15.5197 13.2216 15.5402C13.0759 15.5607 12.6838 15.6089 12.3502 15.6473C11.7707 15.714 11.7173 15.7171 11.1541 15.7171C10.7807 15.7171 10.4958 15.7083 10.3767 15.6932C10.2733 15.68 10.0854 15.6528 9.95908 15.6328C9.83275 15.6127 9.63284 15.5751 9.51484 15.5493C9.39685 15.5234 9.19265 15.4731 9.06109 15.4375C8.92952 15.4019 8.71424 15.3394 8.58267 15.2987C8.45111 15.258 8.19738 15.1742 8.01883 15.1126C7.84028 15.0509 7.5212 14.9341 7.30975 14.8529C7.09831 14.7718 6.71105 14.6126 6.44919 14.4993C6.13493 14.3633 5.96533 14.2804 5.95031 14.2555C5.93083 14.2232 5.93961 14.1314 6.0115 13.6162C6.05766 13.2854 6.12228 12.8029 6.15509 12.5441C6.19514 12.2282 6.22294 12.0647 6.23972 12.0465C6.26162 12.0228 6.2832 12.0275 6.4156 12.0847C6.49861 12.1205 6.59726 12.1604 6.63485 12.1732C6.67244 12.1861 6.78777 12.2358 6.89114 12.2837C6.99451 12.3316 7.1406 12.4042 7.21578 12.4449C7.29096 12.4857 7.47165 12.5671 7.6173 12.6258C7.76296 12.6845 8.03207 12.7948 8.21532 12.8709C8.39857 12.9471 8.69074 13.0676 8.86459 13.1388C9.03845 13.2101 9.33831 13.3263 9.53095 13.3971C9.7236 13.4679 10.0504 13.5788 10.2571 13.6436C10.4639 13.7083 10.7625 13.7914 10.9207 13.8283C11.079 13.8651 11.3058 13.9111 11.4248 13.9306C11.5438 13.95 11.7372 13.9758 11.8547 13.9879C11.9822 14.001 12.1681 14.0053 12.316 13.9984C12.4745 13.9911 12.6378 13.9704 12.7693 13.9411C12.8824 13.9159 13.0668 13.8609 13.179 13.819C13.2913 13.7771 13.6178 13.6299 13.9046 13.492C14.1915 13.3541 14.7106 13.0998 15.0583 12.9268C15.406 12.7539 15.9673 12.4746 16.3056 12.3063C16.6439 12.1379 17.0553 11.9391 17.2197 11.8646C17.3842 11.79 17.5264 11.7289 17.5358 11.7289C17.5452 11.7288 17.5631 11.7357 17.5755 11.7443ZM2.83807 15.9221C2.88529 15.9396 2.95893 15.9911 3.01243 16.0441C3.06764 16.0988 3.12424 16.1783 3.15257 16.241C3.19243 16.3293 3.20014 16.3702 3.20031 16.4948C3.2005 16.6255 3.19382 16.6581 3.14437 16.7669C3.10967 16.8433 3.05841 16.919 3.01019 16.9649C2.96729 17.0059 2.8904 17.0563 2.83933 17.077C2.78134 17.1005 2.70524 17.1146 2.63669 17.1146C2.56599 17.1146 2.49175 17.1004 2.42815 17.0746C2.35871 17.0464 2.30101 17.0038 2.2338 16.931C2.16568 16.8572 2.12711 16.7956 2.09959 16.7165C2.06827 16.6266 2.06232 16.579 2.06816 16.4654C2.07317 16.3683 2.08783 16.2974 2.11594 16.2346C2.13823 16.1846 2.18883 16.1088 2.22836 16.0659C2.2679 16.0231 2.33162 15.9707 2.36996 15.9495C2.4083 15.9283 2.46861 15.9031 2.504 15.8935C2.5394 15.8839 2.61063 15.8795 2.66232 15.8839C2.714 15.8882 2.79308 15.9054 2.83807 15.9221Z" fill="white"/>
</svg>
