<svg width="24" height="24" viewBox="0 0 24 24" fill="none" xmlns="http://www.w3.org/2000/svg">
<path fill-rule="evenodd" clip-rule="evenodd" d="M0.523966 1.02844C0.426329 1.05575 0.268473 1.15952 0.173174 1.25891C0.0251985 1.41338 0 1.48535 0 1.75359C0 2.02136 0.0253155 2.09386 0.172063 2.24709C0.266719 2.34584 0.43773 2.45266 0.552088 2.48446C0.666446 2.51621 1.31588 2.54234 1.9953 2.54252C2.91344 2.54281 3.24529 2.56164 3.28809 2.61595C3.31978 2.65618 4.29644 6.18292 5.45844 10.4533C6.62049 14.7236 7.57125 18.2663 7.57125 18.3259C7.57125 18.3967 7.45637 18.4991 7.24017 18.6211C7.0581 18.7239 6.78788 18.9324 6.63973 19.0846C6.49152 19.2367 6.28613 19.519 6.18329 19.712C6.08051 19.9049 5.95603 20.2174 5.90681 20.4065C5.85758 20.5955 5.8173 20.9096 5.8173 21.1045C5.8173 21.2995 5.86611 21.6349 5.92575 21.8501C5.98544 22.0653 6.12354 22.3898 6.23269 22.5713C6.34185 22.7528 6.57296 23.0314 6.74631 23.1905C6.9196 23.3496 7.18269 23.5404 7.33096 23.6147C7.47917 23.6889 7.74098 23.7956 7.91269 23.8518C8.15141 23.93 8.36457 23.9488 8.8189 23.9319C9.35936 23.9118 9.45401 23.8903 9.86865 23.6933C10.1568 23.5563 10.4499 23.357 10.6656 23.1512C10.8533 22.9722 11.0866 22.6755 11.184 22.4919C11.2814 22.3082 11.4062 22.0017 11.4614 21.8107C11.5366 21.5502 11.5543 21.3309 11.5323 20.9337C11.5135 20.5959 11.4579 20.2876 11.3787 20.0825C11.3105 19.9056 11.2546 19.7412 11.2546 19.717C11.2546 19.6929 12.5205 19.6732 14.0677 19.6732C16.8809 19.6732 16.8809 19.6732 16.8495 19.8047C16.8323 19.8771 16.7736 20.0941 16.7192 20.2871C16.6479 20.54 16.6292 20.7602 16.6521 21.0764C16.6696 21.3175 16.7261 21.6527 16.7776 21.821C16.8291 21.9894 16.9836 22.292 17.1208 22.4934C17.262 22.7005 17.5258 22.9776 17.7283 23.1314C17.9252 23.281 18.2395 23.4622 18.4269 23.5342C18.6346 23.6142 18.9517 23.676 19.2404 23.6931C19.5006 23.7084 19.8511 23.6915 20.0193 23.6554C20.1875 23.6193 20.4691 23.5217 20.645 23.4385C20.821 23.3552 21.121 23.1426 21.3117 22.9661C21.5024 22.7895 21.7358 22.5091 21.8302 22.343C21.9247 22.1769 22.0467 21.8861 22.1013 21.6968C22.1559 21.5074 22.2006 21.1625 22.2006 20.9302C22.2006 20.6979 22.1561 20.353 22.1017 20.1636C22.0474 19.9743 21.9353 19.7026 21.8526 19.56C21.7698 19.4173 21.5943 19.183 21.4625 19.0392C21.3307 18.8955 21.0914 18.6945 20.9306 18.5925C20.7698 18.4906 20.5199 18.3566 20.3752 18.2948C20.1235 18.1872 19.8724 18.181 14.6216 18.1531C9.13123 18.1239 9.13123 18.1239 9.02382 17.7438C8.96472 17.5348 8.91631 17.3017 8.91619 17.2259C8.91596 17.088 8.91596 17.088 14.8155 17.109C20.7151 17.13 20.7151 17.13 20.9398 16.95C21.0633 16.851 21.2348 16.6405 21.3208 16.4823C21.4143 16.3103 21.6887 15.4062 22.0027 14.2359C22.2917 13.1587 22.8593 11.0403 23.2641 9.52842C23.6689 8.01645 24 6.69829 24 6.59913C24 6.49998 23.9407 6.33089 23.8683 6.22338C23.7958 6.11586 23.6538 5.97958 23.5527 5.92059C23.3775 5.81821 22.9636 5.81155 14.5924 5.77623C8.38953 5.7501 5.80122 5.72063 5.76649 5.67579C5.73942 5.64089 5.4734 4.70462 5.17523 3.59525C4.87712 2.48587 4.5835 1.49547 4.52276 1.39438C4.46201 1.29335 4.32719 1.17157 4.22318 1.1238C4.0755 1.05604 3.66911 1.03067 2.36784 1.00786C1.4514 0.991845 0.621661 1.00108 0.523966 1.02844ZM22.1997 7.38836C22.2225 7.40888 21.8335 8.95143 21.3352 10.8162C20.8369 12.681 20.3646 14.4435 20.2855 14.7329C20.2065 15.0223 20.0928 15.3248 20.033 15.4052C19.924 15.5514 19.924 15.5514 14.4054 15.5667C10.5193 15.5774 8.84089 15.563 8.73173 15.5181C8.64649 15.483 8.52038 15.3943 8.45145 15.321C8.35785 15.2214 8.06008 14.2084 7.27326 11.3127C6.6941 9.18155 6.23298 7.40467 6.24854 7.36409C6.27116 7.30516 7.86171 7.29651 14.2176 7.32071C18.585 7.33737 22.177 7.36784 22.1997 7.38836Z" fill="white"/>
</svg>
